<?xml version="1.0" encoding="UTF-8"?>
<svg xmlns="http://www.w3.org/2000/svg" height="100" width="100">
  <path d="M5 15S5 5 15 5h70s10 0 10 10v70s0 10-10 10H15S5 95 5 85V15z" fill="#ccc"/>
  <path d="M53 57s0-4 4-4h26s4 0 4 4v26s0 4-4 4H57s-4 0-4-5V57z" fill="#f72"/>
  <path d="M13 57s0-4 4-4h26s4 0 4 4v26s0 4-4 4H17s-4 0-4-5V57zm40-40s0-4 4-4h26s4 0 4 4v26s0 4-4 4H57s-4 0-4-4V17zm-40 0s0-4 4-4h26s4 0 4 4v26s0 4-4 4H17s-4 0-4-5V17z" fill="#777"/>
  <path d="M37 76l-4-7 4-6h-5l-2 3-2-3h-5l4 6-4 7h5l2-4 2 4h5zm26-5h14v4H63v-4zm0-7h14v4H63v-4zM28 23h4v5h5v4h-5v5h-4v-5h-5v-4h5v-5zm35 5h14v4H63v-4z" fill="#fff"/>
</svg>
